<svg width="18" height="18" viewBox="0 0 18 18" fill="none" xmlns="http://www.w3.org/2000/svg">
<path d="M13.4415 8.71523C13.4058 8.62317 13.3522 8.53906 13.284 8.46773L9.53397 4.71773C9.46404 4.6478 9.38102 4.59233 9.28965 4.55449C9.19829 4.51664 9.10036 4.49716 9.00146 4.49716C8.80174 4.49716 8.61019 4.5765 8.46896 4.71773C8.39904 4.78766 8.34356 4.87068 8.30572 4.96204C8.26787 5.05341 8.2484 5.15134 8.2484 5.25023C8.2484 5.44996 8.32774 5.6415 8.46896 5.78273L10.944 8.25023H5.25146C5.05255 8.25023 4.86179 8.32925 4.72113 8.4699C4.58048 8.61055 4.50146 8.80132 4.50146 9.00023C4.50146 9.19914 4.58048 9.38991 4.72113 9.53056C4.86179 9.67121 5.05255 9.75023 5.25146 9.75023H10.944L8.46896 12.2177C8.39867 12.2875 8.34287 12.3704 8.3048 12.4618C8.26672 12.5532 8.24712 12.6512 8.24712 12.7502C8.24712 12.8492 8.26672 12.9473 8.3048 13.0387C8.34287 13.1301 8.39867 13.213 8.46896 13.2827C8.53869 13.353 8.62164 13.4088 8.71303 13.4469C8.80443 13.485 8.90246 13.5046 9.00146 13.5046C9.10047 13.5046 9.1985 13.485 9.2899 13.4469C9.38129 13.4088 9.46424 13.353 9.53397 13.2827L13.284 9.53273C13.3522 9.4614 13.4058 9.37729 13.4415 9.28523C13.5165 9.10263 13.5165 8.89783 13.4415 8.71523Z" fill="white"/>
</svg>
