<svg width="56" height="42" viewBox="0 0 56 42" fill="none" xmlns="http://www.w3.org/2000/svg">
<path d="M29.75 3.49158C26.8042 3.49012 23.933 4.4179 21.5451 6.14285C19.1572 7.86781 17.3742 10.302 16.45 13.0991C16.3848 13.3252 16.2746 13.5359 16.1261 13.7185C15.9775 13.9011 15.7937 14.0519 15.5855 14.1618C15.3773 14.2716 15.1492 14.3384 14.9146 14.3581C14.68 14.3777 14.4439 14.3498 14.2204 14.2761C13.9968 14.2024 13.7905 14.0843 13.6136 13.929C13.4368 13.7736 13.2931 13.5842 13.1911 13.372C13.0892 13.1599 13.0311 12.9293 13.0204 12.6942C13.0096 12.4591 13.0464 12.2242 13.1285 12.0036C14.3434 8.33488 16.738 5.17127 19.939 3.00598C23.1401 0.840697 26.9676 -0.204565 30.8249 0.0331692C34.6822 0.270903 38.3525 1.77827 41.2634 4.32025C44.1743 6.86224 46.1623 10.296 46.9175 14.0861C49.5574 14.4427 51.9631 15.7893 53.6473 17.8533C55.3314 19.9172 56.1682 22.5441 55.9879 25.2019C55.8077 27.8597 54.6241 30.3496 52.6767 32.1673C50.7293 33.985 48.1639 34.9946 45.5 34.9916H15.75C15.2859 34.9916 14.8407 34.8072 14.5126 34.479C14.1844 34.1508 14 33.7057 14 33.2416C14 32.7774 14.1844 32.3323 14.5126 32.0041C14.8407 31.6759 15.2859 31.4916 15.75 31.4916H45.5C47.3565 31.492 49.1372 30.755 50.4503 29.4426C51.7633 28.1301 52.5013 26.3498 52.5017 24.4933C52.5022 22.6368 51.7652 20.8561 50.4527 19.5431C49.1403 18.23 47.36 17.492 45.5035 17.4916H45.4125C44.9799 17.4942 44.5616 17.3365 44.2384 17.0488C43.9153 16.7612 43.7101 16.3641 43.6625 15.9341C43.2794 12.5122 41.6488 9.35151 39.0822 7.05614C36.5157 4.76077 33.1932 3.49172 29.75 3.49158ZM0 19.2416C0 18.7774 0.184374 18.3323 0.512563 18.0041C0.840752 17.6759 1.28587 17.4916 1.75 17.4916H19.25C19.7141 17.4916 20.1592 17.6759 20.4874 18.0041C20.8156 18.3323 21 18.7774 21 19.2416C21 19.7057 20.8156 20.1508 20.4874 20.479C20.1592 20.8072 19.7141 20.9916 19.25 20.9916H1.75C1.28587 20.9916 0.840752 20.8072 0.512563 20.479C0.184374 20.1508 0 19.7057 0 19.2416ZM7 26.2416C7 25.7774 7.18437 25.3323 7.51256 25.0041C7.84075 24.6759 8.28587 24.4916 8.75 24.4916H40.25C40.7141 24.4916 41.1592 24.6759 41.4874 25.0041C41.8156 25.3323 42 25.7774 42 26.2416C42 26.7057 41.8156 27.1508 41.4874 27.479C41.1592 27.8072 40.7141 27.9916 40.25 27.9916H8.75C8.28587 27.9916 7.84075 27.8072 7.51256 27.479C7.18437 27.1508 7 26.7057 7 26.2416ZM0 40.2416C0 39.7774 0.184374 39.3323 0.512563 39.0041C0.840752 38.6759 1.28587 38.4916 1.75 38.4916H33.25C33.7141 38.4916 34.1592 38.6759 34.4874 39.0041C34.8156 39.3323 35 39.7774 35 40.2416C35 40.7057 34.8156 41.1508 34.4874 41.479C34.1592 41.8072 33.7141 41.9916 33.25 41.9916H1.75C1.28587 41.9916 0.840752 41.8072 0.512563 41.479C0.184374 41.1508 0 40.7057 0 40.2416Z" fill="#184E7F"/>
</svg>
